<svg id="Layer_2" enable-background="new 0 0 512 512" height="512" viewBox="0 0 512 512" width="512" xmlns="http://www.w3.org/2000/svg"><g><g><path d="m10 10h492v368h-492z" fill="#466089"/></g><g><path d="m30 30h452v328h-452z" fill="#6e83b7"/></g><g><path d="m62 378h20v124h-20z" fill="#edeff1"/></g><g><path d="m82 430h348v20h-348z" fill="#d3d3d3"/></g><g><path d="m62 378h20v10h-20z" fill="#d3d3d3"/></g><g><path d="m430 378h20v124h-20z" fill="#edeff1"/></g><g><path d="m430 378h20v10h-20z" fill="#d3d3d3"/></g><g><g><path d="m48 48h120v140h-120z" fill="#edeff1"/></g><g><circle cx="108" cy="62" fill="#ffb0aa" r="7"/></g><g><path d="m58 78h100v10h-100z" fill="#d3d3d3"/></g><g><path d="m58 98h100v10h-100z" fill="#d3d3d3"/></g><g><path d="m58 118h100v10h-100z" fill="#d3d3d3"/></g><g><path d="m58 138h100v10h-100z" fill="#d3d3d3"/></g><g><path d="m58 158h100v10h-100z" fill="#d3d3d3"/></g></g><g><g><path d="m271 203h120v140h-120z" fill="#edeff1"/></g><g><circle cx="331" cy="217" fill="#ffb0aa" r="7"/></g><g><path d="m281 233h100v10h-100z" fill="#d3d3d3"/></g><g><path d="m281 253h100v10h-100z" fill="#d3d3d3"/></g><g><path d="m281 273h100v10h-100z" fill="#d3d3d3"/></g><g><path d="m281 293h100v10h-100z" fill="#d3d3d3"/></g><g><path d="m281 313h100v10h-100z" fill="#d3d3d3"/></g></g><g><g><path d="m196 48h120v140h-120z" fill="#edeff1"/></g><g><circle cx="256" cy="62" fill="#80d6fb" r="7"/></g><g><path d="m206 78h50v50h-50z" fill="#d3d3d3"/></g><g><path d="m216 88h30v30h-30z" fill="#6e83b7"/></g><g><path d="m264 118h42v10h-42z" fill="#d3d3d3"/></g><g><path d="m264 98h42v10h-42z" fill="#d3d3d3"/></g><g><path d="m264 78h42v10h-42z" fill="#d3d3d3"/></g><g><path d="m206 138h100v10h-100z" fill="#d3d3d3"/></g><g><path d="m206 158h100v10h-100z" fill="#d3d3d3"/></g></g><g><g><path d="m348 71h94v94h-94z" fill="#edeff1" transform="matrix(0 -1 1 0 277 513)"/></g><g><path d="m365 75h60v74h-60z" fill="#6e83b7" transform="matrix(0 -1 1 0 283 507)"/></g><g><circle cx="395" cy="82" fill="#ffe352" r="7"/></g></g><g><g><path d="m141 229h94v94h-94z" fill="#edeff1" transform="matrix(0 -1 1 0 -88 464)"/></g><g><path d="m158 233h60v74h-60z" fill="#6e83b7" transform="matrix(0 -1 1 0 -82 458)"/></g><g><circle cx="188" cy="240" fill="#ffe352" r="7"/></g></g></g></svg>